<?xml version="1.0" standalone="no"?>
<!DOCTYPE svg PUBLIC "-//W3C//DTD SVG 20010904//EN"
 "http://www.w3.org/TR/2001/REC-SVG-20010904/DTD/svg10.dtd">
<svg version="1.0" xmlns="http://www.w3.org/2000/svg"
 width="800.000000pt" height="800.000000pt" viewBox="0 0 800.000000 800.000000"
 preserveAspectRatio="xMidYMid meet">
<metadata>
Created by potrace 1.11, written by Peter Selinger 2001-2013
</metadata>
<g transform="translate(0.000000,800.000000) scale(0.100000,-0.100000)"
fill="#000000" stroke="none">
<path d="M3758 7995 c-1 -1 -41 -5 -88 -9 -231 -16 -584 -81 -801 -147 -41
-12 -78 -24 -84 -25 -21 -5 -263 -93 -325 -119 -283 -118 -600 -298 -853 -487
-264 -198 -575 -500 -750 -731 -20 -26 -42 -54 -49 -62 -29 -30 -164 -232
-239 -357 -67 -112 -195 -359 -245 -473 -7 -16 -20 -47 -29 -67 -16 -39 -85
-226 -89 -243 -2 -5 -15 -50 -31 -100 -16 -49 -30 -94 -31 -100 -1 -5 -11 -46
-22 -90 -53 -204 -87 -406 -109 -650 -15 -161 -8 -662 11 -775 4 -22 10 -73
22 -170 17 -150 126 -584 173 -695 5 -11 19 -49 31 -85 55 -158 190 -444 290
-614 28 -47 52 -86 54 -86 6 0 96 161 96 171 0 5 4 9 8 9 4 0 13 12 19 28 7
15 26 52 44 82 17 30 44 78 59 105 28 51 40 72 110 196 22 39 40 73 40 76 0 3
8 17 19 31 10 15 37 63 61 107 24 44 46 85 50 90 4 6 21 35 37 65 28 51 81
146 232 414 33 60 61 111 61 113 0 1 18 32 40 68 22 36 40 67 40 69 0 2 21 41
46 87 26 46 60 109 77 139 16 30 58 105 92 165 35 61 75 133 90 160 15 28 43
76 61 108 19 32 34 60 34 62 0 3 18 34 40 70 22 36 40 67 40 70 0 2 23 43 50
91 28 48 50 88 50 90 0 1 22 41 50 89 27 48 50 88 50 89 0 2 23 42 50 90 28
48 50 89 50 91 0 3 18 34 40 70 22 36 40 67 40 70 0 2 15 30 34 62 18 32 44
78 58 103 14 25 58 104 98 175 40 72 89 159 108 195 20 36 73 132 119 213 46
82 83 151 83 153 0 2 18 33 40 69 22 36 40 67 40 69 0 3 23 43 50 91 28 48 50
88 50 89 0 2 23 42 50 90 28 48 50 89 50 92 0 3 8 18 19 32 10 15 37 63 61
107 24 44 46 85 50 90 4 6 21 35 37 65 16 30 63 114 103 185 40 72 84 150 98
175 14 25 40 71 58 103 19 32 34 61 34 63 0 3 8 18 19 32 10 15 37 63 61 107
24 44 56 102 72 128 15 26 28 49 28 51 0 2 27 52 60 111 33 59 60 109 60 111
0 2 18 33 40 69 22 36 40 70 40 75 0 17 15 11 29 -11 14 -24 41 -71 74 -134
12 -22 24 -42 27 -45 5 -5 20 -32 72 -130 34 -62 56 -103 115 -207 81 -146
103 -187 103 -194 0 -5 4 -9 9 -9 5 0 11 -8 14 -17 3 -10 21 -45 40 -78 57
-100 78 -138 100 -180 12 -22 24 -42 27 -45 3 -3 15 -23 27 -45 11 -22 31 -58
43 -80 13 -22 33 -59 46 -82 48 -86 78 -139 111 -198 19 -33 37 -68 40 -77 3
-10 9 -18 14 -18 5 0 9 -5 9 -10 0 -6 19 -43 41 -83 41 -71 64 -112 114 -202
14 -25 36 -65 50 -90 14 -25 36 -64 49 -87 13 -24 33 -61 46 -83 12 -22 32
-58 43 -80 12 -22 24 -42 27 -45 3 -3 21 -34 39 -70 19 -36 43 -80 53 -97 47
-85 62 -111 81 -148 12 -22 24 -42 27 -45 3 -3 23 -39 44 -80 21 -41 44 -82
50 -90 6 -8 21 -33 33 -55 11 -22 30 -57 42 -77 12 -21 30 -55 42 -75 12 -21
31 -56 42 -78 12 -22 24 -42 27 -45 3 -3 15 -23 27 -45 11 -22 31 -58 43 -80
13 -22 33 -59 46 -82 13 -24 35 -62 48 -85 13 -24 33 -61 46 -83 12 -22 32
-58 43 -80 12 -22 24 -42 27 -45 3 -3 21 -34 39 -70 48 -91 55 -104 61 -110 3
-3 15 -23 27 -45 11 -22 31 -58 43 -80 13 -22 36 -65 53 -95 16 -30 33 -59 37
-65 5 -5 20 -31 34 -57 30 -55 66 -120 100 -181 13 -23 39 -71 58 -107 19 -36
45 -83 57 -105 13 -22 33 -58 44 -80 12 -22 24 -42 27 -45 3 -3 15 -23 27 -45
22 -42 43 -80 100 -180 19 -33 37 -68 40 -77 3 -10 9 -18 14 -18 5 0 9 -4 9
-9 0 -7 22 -48 103 -193 15 -27 38 -67 51 -90 13 -24 34 -61 46 -83 13 -22 33
-58 44 -80 12 -22 23 -42 26 -45 3 -3 15 -23 27 -45 11 -22 31 -58 43 -80 13
-22 33 -59 46 -83 28 -50 62 -111 117 -207 22 -38 53 -95 70 -125 16 -30 33
-59 37 -63 19 -21 216 362 313 608 87 221 182 540 202 680 4 22 8 47 10 55 5
16 35 208 40 250 16 150 20 236 20 485 0 160 -4 322 -8 360 -4 39 -9 88 -12
110 -15 151 -63 398 -110 570 -15 55 -28 105 -29 110 -2 6 -5 17 -8 25 -3 8
-25 71 -48 140 -329 963 -1057 1793 -1980 2255 -185 93 -385 176 -535 222 -27
8 -59 19 -70 23 -11 5 -31 11 -45 15 -14 3 -76 20 -139 36 -118 31 -319 73
-405 84 -27 3 -52 8 -55 10 -4 2 -46 6 -96 10 -49 3 -93 9 -99 12 -10 6 -581
14 -588 8z"/>
<path d="M606 1888 c55 -96 206 -303 329 -454 149 -182 402 -427 585 -567 30
-23 57 -44 60 -47 3 -4 28 -22 55 -41 28 -18 52 -37 55 -40 8 -10 189 -129
195 -129 4 0 26 -13 50 -30 24 -16 48 -30 53 -30 6 0 12 -3 14 -7 6 -16 300
-163 448 -226 100 -42 297 -115 331 -122 9 -2 37 -10 62 -19 38 -13 174 -50
227 -61 198 -44 329 -67 465 -81 28 -3 64 -8 80 -11 53 -9 638 -12 710 -3 39
4 99 10 135 14 36 3 106 13 155 21 50 8 108 18 130 21 56 9 334 78 430 108
298 92 601 227 870 389 83 49 152 93 155 96 3 4 29 22 58 40 45 29 140 97 178
129 5 5 32 26 60 47 27 20 51 40 54 44 3 3 34 31 70 61 127 106 352 339 475
491 103 126 295 396 295 414 0 3 -1528 5 -3396 5 -2713 0 -3394 -3 -3388 -12z"/>
</g>
</svg>
